<svg width="61" height="56" viewBox="0 0 61 56" fill="none" xmlns="http://www.w3.org/2000/svg">
<path d="M4.28071 31.4808C2.32809 29.5282 2.32809 26.3624 4.28071 24.4097L24.7022 3.98823C26.6548 2.03561 29.8207 2.03561 31.7733 3.98823L52.1948 24.4097C54.1474 26.3624 54.1474 29.5282 52.1948 31.4808L31.7733 51.9023C29.8207 53.8549 26.6548 53.8549 24.7022 51.9023L4.28071 31.4808Z" fill="url(#paint0_linear_131_36)"/>
<path fill-rule="evenodd" clip-rule="evenodd" d="M19.5063 41.2389L29.7171 51.4496C31.6697 53.4022 34.8355 53.4022 36.7881 51.4496L57.2097 31.0281C59.1623 29.0755 59.1623 25.9097 57.2097 23.957L36.7881 3.53553C34.8355 1.58291 31.6697 1.58291 29.7171 3.53553L19.5063 13.7463L29.7171 23.957C31.6697 25.9097 31.6697 29.0755 29.7171 31.0281L19.5063 41.2389Z" fill="url(#paint1_linear_131_36)"/>
<rect x="33.2526" y="27.491" width="19.4402" height="19.4402" rx="5" transform="rotate(-45 33.2526 27.491)" fill="url(#paint2_linear_131_36)"/>
<defs>
<linearGradient id="paint0_linear_131_36" x1="14.5" y1="14.5" x2="44" y2="44" gradientUnits="userSpaceOnUse">
<stop offset="0.0199173" stop-color="#47BAEB"/>
<stop offset="0.732854" stop-color="#07234E"/>
</linearGradient>
<linearGradient id="paint1_linear_131_36" x1="30.8226" y1="2.20211" x2="58.4641" y2="31.3624" gradientUnits="userSpaceOnUse">
<stop stop-color="#84E0DA"/>
<stop offset="0.472137" stop-color="#4A9BC8" stop-opacity="0.873887"/>
<stop offset="1" stop-color="#091154"/>
</linearGradient>
<linearGradient id="paint2_linear_131_36" x1="46.1491" y1="21.3083" x2="45.7955" y2="51.3604" gradientUnits="userSpaceOnUse">
<stop offset="0.297193" stop-color="#67A1D6"/>
<stop offset="1" stop-color="#182B6E"/>
</linearGradient>
</defs>
</svg>
