<svg width="150" height="45" viewBox="0 0 150 45" fill="none" xmlns="http://www.w3.org/2000/svg">
<path d="M25 0H45V20H30C27.2386 20 25 17.7614 25 15V0Z" fill="#9B9B9B"/>
<path d="M25 30C25 27.2386 27.2386 25 30 25H45V45H25V30Z" fill="#5DA9DD"/>
<path d="M0 25H15C17.7614 25 20 27.2386 20 30V45H0V25Z" fill="#013E7B"/>
<path fill-rule="evenodd" clip-rule="evenodd" d="M4.63099 15L0 19.631V20H15C17.7614 20 20 17.7614 20 15V0H19.631L15 4.63099V10C15 12.7614 12.7614 15 10 15H4.63099Z" fill="#616161"/>
<path d="M58.1392 24.2912V18.0909H61.6051V29H58.2955V26.9688H58.1818C57.9403 27.6364 57.5284 28.1667 56.946 28.5597C56.3684 28.9479 55.67 29.142 54.8509 29.142C54.1075 29.142 53.4541 28.9716 52.8906 28.6307C52.3272 28.2898 51.8892 27.8139 51.5767 27.2031C51.2642 26.5876 51.1056 25.8679 51.1009 25.044V18.0909H54.5739V24.3622C54.5786 24.9541 54.7348 25.4205 55.0426 25.7614C55.3504 26.1023 55.7694 26.2727 56.2997 26.2727C56.6454 26.2727 56.9555 26.197 57.2301 26.0455C57.5095 25.8892 57.7296 25.6643 57.8906 25.3707C58.0563 25.0724 58.1392 24.7126 58.1392 24.2912ZM67.2887 22.7784V29H63.8157V18.0909H67.1183V20.0938H67.239C67.4805 19.4261 67.8924 18.9029 68.4748 18.5241C69.0572 18.1406 69.7508 17.9489 70.5558 17.9489C71.3228 17.9489 71.988 18.1217 72.5515 18.4673C73.1197 18.8082 73.56 19.2865 73.8725 19.902C74.1897 20.5128 74.346 21.2277 74.3413 22.0469V29H70.8683V22.7287C70.873 22.1226 70.7191 21.6491 70.4066 21.3082C70.0988 20.9673 69.6703 20.7969 69.1211 20.7969C68.7565 20.7969 68.4345 20.8774 68.1552 21.0384C67.8806 21.1946 67.6675 21.4195 67.516 21.7131C67.3692 22.0066 67.2934 22.3617 67.2887 22.7784ZM76.4915 29V18.0909H79.9645V29H76.4915ZM78.2315 16.8196C77.7438 16.8196 77.3248 16.6586 76.9744 16.3366C76.6241 16.0099 76.4489 15.617 76.4489 15.1577C76.4489 14.7031 76.6241 14.3149 76.9744 13.9929C77.3248 13.6662 77.7438 13.5028 78.2315 13.5028C78.724 13.5028 79.143 13.6662 79.4886 13.9929C79.839 14.3149 80.0142 14.7031 80.0142 15.1577C80.0142 15.617 79.839 16.0099 79.4886 16.3366C79.143 16.6586 78.724 16.8196 78.2315 16.8196ZM87.2674 29.206C86.1168 29.206 85.1296 28.9692 84.3058 28.4957C83.4866 28.0223 82.8569 27.3641 82.4165 26.5213C81.9762 25.6738 81.756 24.6937 81.756 23.581C81.756 22.4635 81.9762 21.4834 82.4165 20.6406C82.8616 19.7931 83.4937 19.1326 84.3129 18.6591C85.1367 18.1856 86.1192 17.9489 87.2603 17.9489C88.2688 17.9489 89.1471 18.1312 89.8952 18.4957C90.6481 18.8603 91.2352 19.3764 91.6566 20.044C92.0827 20.7069 92.3076 21.4858 92.3313 22.3807H89.0856C89.0193 21.822 88.8299 21.384 88.5174 21.0668C88.2096 20.7495 87.8072 20.5909 87.31 20.5909C86.9076 20.5909 86.5548 20.7045 86.2518 20.9318C85.9487 21.1544 85.712 21.4858 85.5415 21.9261C85.3758 22.3617 85.293 22.9015 85.293 23.5455C85.293 24.1894 85.3758 24.7339 85.5415 25.179C85.712 25.6193 85.9487 25.9531 86.2518 26.1804C86.5548 26.4029 86.9076 26.5142 87.31 26.5142C87.632 26.5142 87.9161 26.4455 88.1623 26.3082C88.4132 26.1709 88.6192 25.9697 88.7802 25.7045C88.9412 25.4347 89.043 25.108 89.0856 24.7244H92.3313C92.2982 25.6241 92.0733 26.41 91.6566 27.0824C91.2447 27.7547 90.6647 28.2779 89.9165 28.652C89.1732 29.0213 88.2901 29.206 87.2674 29.206ZM101.147 24.2912V18.0909H104.613V29H101.303V26.9688H101.19C100.948 27.6364 100.536 28.1667 99.9538 28.5597C99.3762 28.9479 98.6778 29.142 97.8587 29.142C97.1153 29.142 96.4619 28.9716 95.8984 28.6307C95.335 28.2898 94.897 27.8139 94.5845 27.2031C94.272 26.5876 94.1134 25.8679 94.1087 25.044V18.0909H97.5817V24.3622C97.5864 24.9541 97.7427 25.4205 98.0504 25.7614C98.3582 26.1023 98.7772 26.2727 99.3075 26.2727C99.6532 26.2727 99.9633 26.197 100.238 26.0455C100.517 25.8892 100.737 25.6643 100.898 25.3707C101.064 25.0724 101.147 24.7126 101.147 24.2912ZM106.824 29V18.0909H110.197V20.0795H110.311C110.51 19.3598 110.834 18.8248 111.284 18.4744C111.734 18.1193 112.257 17.9418 112.853 17.9418C113.014 17.9418 113.18 17.9536 113.35 17.9773C113.521 17.9962 113.68 18.027 113.826 18.0696V21.0881C113.661 21.0312 113.443 20.9863 113.173 20.9531C112.908 20.92 112.671 20.9034 112.463 20.9034C112.051 20.9034 111.679 20.9957 111.348 21.1804C111.021 21.3603 110.763 21.6136 110.574 21.9403C110.389 22.2623 110.297 22.6411 110.297 23.0767V29H106.824ZM124.766 21.4219L121.577 21.5071C121.544 21.2798 121.454 21.0786 121.307 20.9034C121.16 20.7235 120.968 20.5838 120.732 20.4844C120.5 20.3802 120.23 20.3281 119.922 20.3281C119.519 20.3281 119.176 20.4086 118.892 20.5696C118.613 20.7306 118.475 20.9484 118.48 21.223C118.475 21.4361 118.561 21.6207 118.736 21.777C118.916 21.9332 119.235 22.0587 119.695 22.1534L121.797 22.5511C122.886 22.7595 123.696 23.1051 124.226 23.5881C124.761 24.071 125.031 24.7102 125.036 25.5057C125.031 26.2538 124.808 26.9048 124.368 27.4588C123.932 28.0128 123.336 28.4437 122.578 28.7514C121.821 29.0545 120.954 29.206 119.979 29.206C118.421 29.206 117.192 28.8864 116.293 28.2472C115.398 27.6032 114.886 26.7415 114.759 25.6619L118.189 25.5767C118.265 25.9744 118.461 26.2775 118.778 26.4858C119.096 26.6941 119.5 26.7983 119.993 26.7983C120.438 26.7983 120.8 26.7154 121.08 26.5497C121.359 26.384 121.501 26.1638 121.506 25.8892C121.501 25.643 121.392 25.4465 121.179 25.2997C120.966 25.1482 120.632 25.0298 120.178 24.9446L118.274 24.5824C117.18 24.3835 116.366 24.0166 115.831 23.4815C115.296 22.9418 115.031 22.2552 115.036 21.4219C115.031 20.6927 115.225 20.0701 115.618 19.554C116.011 19.0331 116.57 18.6354 117.294 18.3608C118.018 18.0862 118.873 17.9489 119.858 17.9489C121.335 17.9489 122.5 18.259 123.352 18.8793C124.205 19.4948 124.676 20.3423 124.766 21.4219ZM131.838 29.206C130.692 29.206 129.707 28.9716 128.883 28.5028C128.064 28.0294 127.432 27.3712 126.987 26.5284C126.547 25.6809 126.326 24.6984 126.326 23.581C126.326 22.4588 126.547 21.4763 126.987 20.6335C127.432 19.786 128.064 19.1278 128.883 18.6591C129.707 18.1856 130.692 17.9489 131.838 17.9489C132.984 17.9489 133.966 18.1856 134.785 18.6591C135.609 19.1278 136.241 19.786 136.681 20.6335C137.127 21.4763 137.349 22.4588 137.349 23.581C137.349 24.6984 137.127 25.6809 136.681 26.5284C136.241 27.3712 135.609 28.0294 134.785 28.5028C133.966 28.9716 132.984 29.206 131.838 29.206ZM131.859 26.5852C132.276 26.5852 132.628 26.4574 132.917 26.2017C133.206 25.946 133.426 25.5909 133.578 25.1364C133.734 24.6818 133.812 24.1562 133.812 23.5597C133.812 22.9536 133.734 22.4233 133.578 21.9688C133.426 21.5142 133.206 21.1591 132.917 20.9034C132.628 20.6477 132.276 20.5199 131.859 20.5199C131.428 20.5199 131.064 20.6477 130.765 20.9034C130.472 21.1591 130.247 21.5142 130.091 21.9688C129.939 22.4233 129.863 22.9536 129.863 23.5597C129.863 24.1562 129.939 24.6818 130.091 25.1364C130.247 25.5909 130.472 25.946 130.765 26.2017C131.064 26.4574 131.428 26.5852 131.859 26.5852ZM148.652 21.4219L145.463 21.5071C145.43 21.2798 145.34 21.0786 145.194 20.9034C145.047 20.7235 144.855 20.5838 144.618 20.4844C144.386 20.3802 144.116 20.3281 143.809 20.3281C143.406 20.3281 143.063 20.4086 142.779 20.5696C142.499 20.7306 142.362 20.9484 142.367 21.223C142.362 21.4361 142.447 21.6207 142.623 21.777C142.802 21.9332 143.122 22.0587 143.581 22.1534L145.684 22.5511C146.773 22.7595 147.582 23.1051 148.113 23.5881C148.648 24.071 148.917 24.7102 148.922 25.5057C148.917 26.2538 148.695 26.9048 148.255 27.4588C147.819 28.0128 147.222 28.4437 146.465 28.7514C145.707 29.0545 144.841 29.206 143.865 29.206C142.308 29.206 141.079 28.8864 140.179 28.2472C139.284 27.6032 138.773 26.7415 138.645 25.6619L142.076 25.5767C142.151 25.9744 142.348 26.2775 142.665 26.4858C142.982 26.6941 143.387 26.7983 143.88 26.7983C144.325 26.7983 144.687 26.7154 144.966 26.5497C145.246 26.384 145.388 26.1638 145.392 25.8892C145.388 25.643 145.279 25.4465 145.066 25.2997C144.853 25.1482 144.519 25.0298 144.064 24.9446L142.161 24.5824C141.067 24.3835 140.253 24.0166 139.718 23.4815C139.183 22.9418 138.917 22.2552 138.922 21.4219C138.917 20.6927 139.112 20.0701 139.505 19.554C139.898 19.0331 140.456 18.6354 141.181 18.3608C141.905 18.0862 142.76 17.9489 143.745 17.9489C145.222 17.9489 146.387 18.259 147.239 18.8793C148.091 19.4948 148.562 20.3423 148.652 21.4219Z" fill="#013E7B"/>
</svg>
